<svg class="icon" viewBox="0 0 1419 1024" version="1.1" xmlns="http://www.w3.org/2000/svg"
    p-id="3862" height="128" width="128">
    <path
        d="M744.856806 26.144038C695.742284-6.908416 636.200371-8.721876 585.553044 21.286558L330.35183 172.451341H151.100017C67.788835 172.451341 0 248.249621 0 341.405296v341.167819c0 93.177264 67.788835 168.953955 151.121606 168.953955h179.230224l255.201214 151.164784c23.985158 14.205431 49.956485 21.264969 75.884635 21.264968 28.821049 0 57.577332-8.743464 83.419127-26.144037 49.114522-33.052454 78.410525-91.018384 78.410524-155.115534V181.237983c0-64.075561-29.317591-122.06308-78.410524-155.115534z m-51.100692 816.617979c0 18.480013-10.967111 27.849553-15.673469 31.023107-4.727947 3.173554-17.271041 9.628605-31.86507 0.971496l-269.730478-159.778715c-11.118232-6.584584-23.164783-9.17524-34.865913-8.246922H151.143194c-11.895429 0-21.588801-10.815989-21.5888-24.136279V341.426885c0-13.32029 9.693372-24.136279 21.5888-24.13628h190.47799c11.70113 0.928318 23.747681-1.662338 34.865913-8.246921l269.730478-159.778715c14.594029-8.657109 27.137123-2.202058 31.86507 0.971496 4.706359 3.173554 15.673469 12.543093 15.673469 31.023107v661.524034zM1419.463653 502.177096v-0.345421-0.345421c-0.323832-189.873503-92.464834-365.649519-240.628774-458.89155-28.583572-17.983471-64.766402-6.670939-80.850059 25.280486-16.083657 31.951425-5.958509 72.430427 22.625064 90.413898 111.031203 69.861359 180.02901 201.617811 180.136954 343.888008-0.107944 142.270197-69.105751 274.00506-180.136954 343.888008-28.583572 17.983471-38.687131 58.462473-22.625064 90.413898 10.902344 21.653567 31.044696 33.829651 51.791534 33.82965 9.866082 0 19.861697-2.763367 29.058525-8.549165 148.16394-93.242031 240.304942-269.018047 240.628774-458.89155v-0.345421-0.34542zM1208.411537 502.781582v-0.734019-0.172711-0.17271-0.734019c-0.345421-112.304942-54.878732-216.233429-142.529263-271.392815-28.583572-17.983471-64.766402-6.670939-80.850059 25.280486-16.083657 31.951425-5.958509 72.430427 22.625063 90.413897 50.560971 31.821892 81.994265 91.81717 82.059032 156.605161-0.064766 64.787991-31.476472 124.76168-82.059032 156.605161-28.583572 17.983471-38.687131 58.462473-22.603475 90.392309 10.902344 21.653567 31.044696 33.829651 51.791533 33.829651 9.866082 0 19.861697-2.741778 29.058526-8.549165 87.650531-55.159386 142.183842-159.066284 142.529263-271.392815z"
        p-id="3863"></path>
</svg>